<?xml version="1.0" encoding="utf-8"?>
<!-- Generator: Adobe Illustrator 16.0.0, SVG Export Plug-In . SVG Version: 6.00 Build 0)  -->
<!DOCTYPE svg PUBLIC "-//W3C//DTD SVG 1.1//EN" "http://www.w3.org/Graphics/SVG/1.1/DTD/svg11.dtd">
<svg version="1.1" id="Layer_1" xmlns="http://www.w3.org/2000/svg" xmlns:xlink="http://www.w3.org/1999/xlink" x="0px" y="0px"
	 width="704.377px" height="152.484px" viewBox="0 0 704.377 152.484" enable-background="new 0 0 704.377 152.484"
	 xml:space="preserve">
<g>
	<defs>
		<rect id="SVGID_3_" y="52.483" width="704.377" height="100.001"/>
	</defs>
	<clipPath id="SVGID_2_">
		<use xlink:href="#SVGID_3_"  overflow="visible"/>
	</clipPath>
	<polygon clip-path="url(#SVGID_2_)" fill="#FFFFFF" points="70.984,60.663 67.09,85.493 32.035,85.493 36.027,60.663 
		11.102,60.663 0.001,130.381 24.93,130.381 29.408,102.63 64.363,102.63 59.982,130.381 84.908,130.381 95.91,60.663 	"/>
</g>
<g>
	<defs>
		<rect id="SVGID_5_" y="52.483" width="704.377" height="100.001"/>
	</defs>
	<clipPath id="SVGID_4_">
		<use xlink:href="#SVGID_5_"  overflow="visible"/>
	</clipPath>
	<g clip-path="url(#SVGID_4_)">
		<defs>
			<rect id="SVGID_7_" y="52.483" width="704.377" height="100.001"/>
		</defs>
		<clipPath id="SVGID_6_">
			<use xlink:href="#SVGID_7_"  overflow="visible"/>
		</clipPath>
		<path clip-path="url(#SVGID_6_)" fill="#FFFFFF" d="M105.502,129.263c-3.799-1.786-6.719-4.334-8.763-7.644
			c-2.045-3.314-3.067-7.172-3.067-11.587c0-5.974,1.461-11.359,4.383-16.165c2.922-4.802,6.928-8.553,12.024-11.246
			c5.095-2.692,10.792-4.043,17.087-4.043c5.391,0,10.047,1.252,13.973,3.752c3.931,2.498,6.51,5.858,7.744,10.076h0.096
			l5.062-12.268h19.378l-7.885,50.243h-19.378l-1.071-12.268h-0.097c-2.599,4.22-6.25,7.58-10.956,10.079
			c-4.707,2.496-9.723,3.746-15.044,3.746C113.795,131.938,109.301,131.046,105.502,129.263 M139.193,114.947
			c2.695-1.133,4.818-2.709,6.377-4.722c1.559-2.011,2.339-4.282,2.339-6.817c0-2.853-1.252-5.159-3.75-6.91
			c-2.498-1.755-5.86-2.631-10.078-2.631c-3.31,0-6.312,0.551-9.009,1.656c-2.693,1.102-4.801,2.663-6.326,4.672
			c-1.529,2.014-2.29,4.287-2.29,6.818c0,2.921,1.233,5.257,3.701,7.01c2.466,1.752,5.81,2.63,10.026,2.63
			C133.497,116.653,136.497,116.083,139.193,114.947"/>
		<path clip-path="url(#SVGID_6_)" fill="#FFFFFF" d="M179.357,80.138h19.377l1.068,12.268h0.102
			c2.594-4.218,6.344-7.579,11.246-10.077c4.9-2.5,10.238-3.75,16.018-3.75c7.398,0,13.256,1.947,17.575,5.843
			c4.316,3.896,6.474,9.154,6.474,15.773c0,5.975-1.412,11.379-4.234,16.213c-2.825,4.838-6.686,8.634-11.588,11.394
			c-4.901,2.757-10.369,4.136-16.405,4.136c-5.778,0-10.728-1.25-14.851-3.746c-4.125-2.499-6.801-5.859-8.035-10.079h-0.096
			l-5.258,32.715h-22.492L179.357,80.138z M219.814,114.996c2.695-1.101,4.805-2.661,6.331-4.674
			c1.524-2.012,2.289-4.284,2.289-6.815c0-2.922-1.234-5.258-3.702-7.01c-2.469-1.754-5.842-2.63-10.125-2.63
			c-3.311,0-6.301,0.569-8.958,1.702c-2.663,1.138-4.772,2.713-6.331,4.725c-1.557,2.012-2.336,4.283-2.336,6.816
			c0,2.857,1.249,5.161,3.75,6.913c2.497,1.752,5.855,2.629,10.078,2.629C214.119,116.652,217.119,116.102,219.814,114.996"/>
		<path clip-path="url(#SVGID_6_)" fill="#FFFFFF" d="M258.909,80.138h19.376l1.07,12.268h0.1
			c2.596-4.218,6.344-7.579,11.247-10.077c4.899-2.5,10.237-3.75,16.017-3.75c7.398,0,13.256,1.947,17.575,5.843
			c4.316,3.896,6.474,9.154,6.474,15.773c0,5.975-1.41,11.379-4.234,16.213c-2.825,4.838-6.686,8.634-11.588,11.394
			c-4.901,2.757-10.369,4.136-16.405,4.136c-5.778,0-10.728-1.25-14.851-3.746c-4.123-2.499-6.801-5.859-8.035-10.079h-0.094
			l-5.26,32.715h-22.492L258.909,80.138z M299.365,114.996c2.695-1.101,4.805-2.661,6.33-4.674c1.527-2.012,2.291-4.284,2.291-6.815
			c0-2.922-1.234-5.258-3.701-7.01c-2.469-1.754-5.844-2.63-10.127-2.63c-3.309,0-6.301,0.569-8.958,1.702
			c-2.663,1.138-4.771,2.713-6.331,4.725c-1.557,2.012-2.336,4.283-2.336,6.816c0,2.857,1.249,5.161,3.75,6.913
			c2.497,1.752,5.855,2.629,10.078,2.629C293.67,116.652,296.67,116.102,299.365,114.996"/>
		<path clip-path="url(#SVGID_6_)" fill="#FFFFFF" d="M335.833,150.003c-5.907-1.656-10.58-3.817-14.022-6.477l9.444-14.606
			c3.117,2.207,6.817,3.975,11.101,5.308c4.285,1.33,8.473,1.996,12.563,1.996c6.878,0,12.592-1.412,17.137-4.237
			c4.545-2.821,7.205-6.603,7.984-11.343l0.584-3.504h-0.096c-2.08,4.024-5.389,7.252-9.932,9.686
			c-4.548,2.436-9.513,3.651-14.898,3.651c-4.547,0-8.473-0.825-11.784-2.481c-3.31-1.657-5.841-3.96-7.593-6.913
			c-1.754-2.954-2.631-6.378-2.631-10.273c0-0.975,0.131-2.435,0.392-4.38l4.187-26.291h22.59l-3.799,23.952
			c-0.127,0.649-0.191,1.557-0.191,2.725c0,3.054,0.874,5.472,2.626,7.256c1.753,1.785,4.188,2.677,7.305,2.677
			c4.152,0,7.726-1.28,10.712-3.845c2.981-2.564,4.803-5.956,5.451-10.176l3.506-22.589h22.59l-6.623,41.672
			c-0.973,6.17-3.617,11.555-7.934,16.167c-4.318,4.607-9.949,8.179-16.895,10.71c-6.946,2.531-14.737,3.797-23.369,3.797
			C347.874,152.485,341.736,151.656,335.833,150.003"/>
		<path clip-path="url(#SVGID_6_)" fill="#FFFFFF" d="M449.414,128.433c-5.877-2.468-10.401-5.954-13.582-10.465
			c-3.18-4.51-4.771-9.755-4.771-15.726c0-8.503,2.35-16.05,7.061-22.639c4.705-6.589,11.051-11.7,19.035-15.335
			c7.984-3.637,16.649-5.454,25.998-5.454c7.271,0,13.662,0.956,19.182,2.872c5.518,1.915,9.933,4.593,13.242,8.034
			c3.313,3.442,5.388,7.464,6.231,12.073l-23.757,4.091c-0.975-2.987-2.957-5.357-5.939-7.11c-2.986-1.753-6.623-2.627-10.904-2.627
			c-4.676,0-8.914,0.942-12.711,2.823c-3.795,1.883-6.781,4.529-8.957,7.933c-2.176,3.409-3.264,7.29-3.264,11.639
			c0,5.192,1.948,9.331,5.844,12.413c3.896,3.085,9.154,4.625,15.773,4.625c4.023,0,7.775-0.534,11.247-1.606
			c3.474-1.071,6.377-2.564,8.716-4.48c2.336-1.912,3.828-4.102,4.479-6.573l-34.955,0.099l1.945-12.853h59.01l-6.332,40.213
			h-19.375l0.582-11.292h-0.096c-3.766,4.024-8.602,7.205-14.507,9.541c-5.909,2.334-12.075,3.504-18.503,3.504
			C462.187,132.133,455.289,130.9,449.414,128.433"/>
		<path clip-path="url(#SVGID_6_)" fill="#FFFFFF" d="M535.733,80.139h22.59l-7.983,50.242h-22.494L535.733,80.139z M540.016,72.202
			c-2.01-1.717-3.016-3.976-3.016-6.768c0-3.697,1.379-6.784,4.137-9.25c2.758-2.467,6.117-3.701,10.08-3.701
			c3.375,0,6.069,0.864,8.08,2.582c2.012,1.72,3.02,4.009,3.02,6.864c0,3.7-1.38,6.767-4.139,9.202
			c-2.758,2.436-6.15,3.651-10.174,3.651C544.692,74.782,542.028,73.922,540.016,72.202"/>
		<path clip-path="url(#SVGID_6_)" fill="#FFFFFF" d="M562.119,150.488c-5.842-1.33-10.255-3.099-13.244-5.305l9.742-14.705
			c2.725,2.079,6.243,3.718,10.563,4.919c4.316,1.198,8.744,1.799,13.291,1.799c7.139,0,13.029-1.297,17.671-3.893
			c4.642-2.597,7.354-6.07,8.131-10.42l0.39-2.337h-0.099c-2.595,2.857-6.229,5.146-10.901,6.867
			c-4.677,1.72-9.674,2.577-14.998,2.577c-7.595,0-13.52-1.83-17.771-5.499c-4.252-3.668-6.378-8.716-6.378-15.143
			c0-5.972,1.41-11.293,4.238-15.969c2.822-4.673,6.733-8.307,11.733-10.904c4.995-2.596,10.611-3.897,16.845-3.897
			c5.451,0,10.139,1.237,14.069,3.7c3.927,2.47,6.474,5.781,7.642,9.933h0.099l5.062-12.172h19.379l-6.717,42.745
			c-0.974,6.04-3.64,11.298-7.984,15.777c-4.352,4.478-10.076,7.92-17.187,10.323c-7.108,2.4-15.176,3.601-24.196,3.601
			C574.42,152.485,567.961,151.816,562.119,150.488 M603.502,115.241c2.658-1.2,4.752-2.858,6.281-4.966
			c1.521-2.11,2.286-4.529,2.286-7.254c0-3.051-1.202-5.454-3.599-7.206c-2.403-1.751-5.684-2.63-9.836-2.63
			c-3.377,0-6.395,0.586-9.057,1.753c-2.662,1.168-4.74,2.826-6.232,4.965c-1.493,2.143-2.239,4.546-2.239,7.206
			c0,3.052,1.201,5.471,3.604,7.255c2.398,1.787,5.678,2.677,9.832,2.677C597.855,117.041,600.838,116.443,603.502,115.241"/>
		<path clip-path="url(#SVGID_6_)" fill="#FFFFFF" d="M649.068,129.262c-6.424-1.784-11.293-4.17-14.605-7.157l7.984-9.543
			c2.922,2.079,6.867,3.781,11.832,5.111c4.968,1.334,10.012,1.998,15.142,1.998c4.87,0,8.485-0.31,10.856-0.925
			c2.369-0.617,3.555-1.606,3.555-2.972c0-0.973-0.799-1.752-2.387-2.335c-1.592-0.587-4.008-1.038-7.254-1.365l-11.881-1.264
			c-6.687-0.715-11.716-2.141-15.091-4.285c-3.376-2.143-5.063-5.125-5.063-8.957c0-6.555,3.131-11.376,9.396-14.46
			c6.264-3.082,13.939-4.627,23.029-4.627c12.204,0,22.135,2.599,29.796,7.791l-8.083,9.252c-2.531-1.688-5.73-3.021-9.592-3.991
			c-3.863-0.976-7.869-1.463-12.025-1.463c-3.832,0-6.994,0.342-9.49,1.021c-2.502,0.681-3.752,1.706-3.752,3.067
			c0,0.847,0.633,1.494,1.899,1.949c1.265,0.454,3.455,0.875,6.571,1.265l12.173,1.365c14.67,1.687,22.007,6.491,22.007,14.41
			c0,6.425-3.135,11.166-9.398,14.216c-6.264,3.05-14.426,4.576-24.488,4.576C662.539,131.939,655.496,131.045,649.068,129.262"/>
	</g>
</g>
<g>
	<defs>
		<rect id="SVGID_9_" x="318.293" width="137.121" height="130.093"/>
	</defs>
	<clipPath id="SVGID_8_">
		<use xlink:href="#SVGID_9_"  overflow="visible"/>
	</clipPath>
	<g clip-path="url(#SVGID_8_)">
		<defs>
			<rect id="SVGID_11_" x="318.293" y="-0.001" width="137.121" height="130.094"/>
		</defs>
		<clipPath id="SVGID_10_">
			<use xlink:href="#SVGID_11_"  overflow="visible"/>
		</clipPath>
		<g opacity="0.4" clip-path="url(#SVGID_10_)" enable-background="new    ">
			<g>
				<defs>
					<rect id="SVGID_13_" x="318.998" y="-0.177" width="137" height="131"/>
				</defs>
				<clipPath id="SVGID_12_">
					<use xlink:href="#SVGID_13_"  overflow="visible"/>
				</clipPath>
				<g clip-path="url(#SVGID_12_)">
					<defs>
						<rect id="SVGID_15_" x="319.482" y="0.792" width="135.932" height="129.301"/>
					</defs>
					<clipPath id="SVGID_14_">
						<use xlink:href="#SVGID_15_"  overflow="visible"/>
					</clipPath>
					<path clip-path="url(#SVGID_14_)" fill="#4700CC" d="M319.678,72.724c0.916,10.402,4.965,19.495,12.143,27.279
						c7.174,7.797,17.398,14.693,30.666,20.7c13.254,5.999,25.182,9.13,35.773,9.375c10.588,0.258,20.104-2.693,28.525-8.87
						c8.42-6.176,15.492-15.588,21.223-28.247c5.727-12.653,8.133-24.177,7.217-34.58c-0.92-10.393-4.945-19.571-12.056-27.511
						c-7.112-7.933-17.298-14.911-30.552-20.911c-13.27-6.006-25.234-9.054-35.889-9.164c-10.655-0.104-20.196,2.934-28.612,9.103
						c-8.435,6.17-15.507,15.581-21.234,28.233C321.152,50.79,318.747,62.317,319.678,72.724"/>
				</g>
			</g>
		</g>
		<path clip-path="url(#SVGID_10_)" fill="#FDFE01" d="M318.488,71.93c0.915,10.402,4.965,19.495,12.143,27.28
			c7.174,7.798,17.397,14.692,30.666,20.699c13.256,5.999,25.182,9.132,35.773,9.377c10.588,0.257,20.104-2.695,28.525-8.871
			c8.42-6.177,15.492-15.589,21.224-28.248c5.726-12.652,8.132-24.175,7.216-34.578c-0.918-10.395-4.945-19.572-12.056-27.512
			c-7.112-7.933-17.298-14.912-30.552-20.912c-13.27-6.006-25.234-9.052-35.889-9.164c-10.656-0.102-20.197,2.934-28.612,9.104
			c-8.435,6.169-15.507,15.58-21.234,28.234C319.963,49.998,317.558,61.523,318.488,71.93"/>
		<path clip-path="url(#SVGID_10_)" fill="#231F20" d="M370.307,43.646c-2.643,5.834-9.512,8.422-15.346,5.783
			c-5.832-2.642-8.422-9.511-5.779-15.346c2.64-5.833,9.509-8.421,15.342-5.781C370.358,30.941,372.946,37.813,370.307,43.646"/>
		<path clip-path="url(#SVGID_10_)" fill="#FFFFFF" d="M368.424,39.187c-0.926,2.047-3.338,2.955-5.385,2.028
			c-2.046-0.926-2.955-3.337-2.029-5.383c0.928-2.047,3.338-2.958,5.386-2.031C368.442,34.729,369.35,37.139,368.424,39.187"/>
		<path clip-path="url(#SVGID_10_)" fill="#231F20" d="M412.695,62.835c-2.641,5.833-0.051,12.704,5.781,15.344
			c5.836,2.64,12.705,0.052,15.344-5.781c2.642-5.835,0.055-12.704-5.78-15.346C422.207,54.413,415.338,57.001,412.695,62.835"/>
		<path clip-path="url(#SVGID_10_)" fill="#FFFFFF" d="M417.289,61.305c-0.928,2.047-0.02,4.458,2.027,5.385
			c2.047,0.928,4.459,0.017,5.385-2.03c0.929-2.046,0.02-4.457-2.027-5.383C420.627,58.35,418.215,59.258,417.289,61.305"/>
		<path clip-path="url(#SVGID_10_)" fill="#FDFE01" d="M367.791,56.558c2.176-4.69,0.14-10.256-4.553-12.434
			c-4.689-2.176-10.256-0.138-12.434,4.551c-2.176,4.692-0.139,10.258,4.552,12.435C360.047,63.287,365.613,61.248,367.791,56.558"
			/>
		<path clip-path="url(#SVGID_10_)" fill="#FDFE01" d="M422.091,81.759c2.177-4.69,0.14-10.258-4.552-12.435
			c-4.689-2.176-10.256-0.139-12.434,4.552c-2.177,4.69-0.139,10.256,4.551,12.434C414.348,88.487,419.914,86.449,422.091,81.759"/>
		<path clip-path="url(#SVGID_10_)" fill="#231F20" d="M403.061,85.015c-3.863,7.067-14.959,19.587-31.414,12.139
			c-22.371-10.128-10.522-36.518-9.483-35.471C381.063,80.737,413.447,66.013,403.061,85.015"/>
		<path clip-path="url(#SVGID_10_)" fill="#E802C9" d="M396.178,93.562c-1.113-2.512-3.105-4.644-5.805-5.865
			c-5.833-2.642-12.704-0.053-15.344,5.778c-0.678,1.501-1.008,3.066-1.028,4.611C383.436,101.385,390.958,98.125,396.178,93.562"/>
	</g>
</g>
</svg>
