<?xml version="1.0" encoding="utf-8"?>
<!-- Generator: Adobe Illustrator 16.0.0, SVG Export Plug-In . SVG Version: 6.00 Build 0)  -->
<!DOCTYPE svg PUBLIC "-//W3C//DTD SVG 1.1//EN" "http://www.w3.org/Graphics/SVG/1.1/DTD/svg11.dtd">
<svg version="1.1" id="Layer_1" xmlns="http://www.w3.org/2000/svg" xmlns:xlink="http://www.w3.org/1999/xlink" x="0px" y="0px"
	 width="164.118px" height="143.569px" viewBox="0 0 164.118 143.569" enable-background="new 0 0 164.118 143.569"
	 xml:space="preserve">
<path fill="#FFF300" d="M164.118,42.958c0,0,0,0.528-0.04,1.544c0,0.324-0.041,0.686-0.041,1.136
	c-0.04,0.445-0.083,0.891-0.123,1.419c-0.043,0.288-0.084,0.571-0.084,0.854c-0.077,0.564-0.116,1.219-0.241,1.83
	c-2.27,17.499-14.66,64.516-81.529,93.828C15.188,114.297,2.8,67.323,0.53,49.815c-0.166-0.97-0.246-1.86-0.323-2.676
	c-0.043-0.525-0.083-1.018-0.126-1.463c0-0.401-0.041-0.812-0.041-1.131C0,43.529,0,42.958,0,42.958C0,19.246,19.25,0,42.959,0
	c17.376,0,32.32,10.314,39.062,25.134C88.8,10.314,103.744,0,121.119,0C144.87,0,164.118,19.246,164.118,42.958z"/>
</svg>
