<?xml version="1.0" encoding="utf-8"?>
<!-- Generator: Adobe Illustrator 16.0.0, SVG Export Plug-In . SVG Version: 6.00 Build 0)  -->
<!DOCTYPE svg PUBLIC "-//W3C//DTD SVG 1.1//EN" "http://www.w3.org/Graphics/SVG/1.1/DTD/svg11.dtd">
<svg version="1.1" id="Layer_1" xmlns="http://www.w3.org/2000/svg" xmlns:xlink="http://www.w3.org/1999/xlink" x="0px" y="0px"
	 width="548.992px" height="520.856px" viewBox="0 0 548.992 520.856" enable-background="new 0 0 548.992 520.856"
	 xml:space="preserve">
<g>
	<defs>
		<rect id="SVGID_3_" width="548.992" height="520.856"/>
	</defs>
	<clipPath id="SVGID_2_">
		<use xlink:href="#SVGID_3_"  overflow="visible"/>
	</clipPath>
	<g clip-path="url(#SVGID_2_)">
		<defs>
			<rect id="SVGID_5_" y="-0.002" width="548.991" height="520.858"/>
		</defs>
		<clipPath id="SVGID_4_">
			<use xlink:href="#SVGID_5_"  overflow="visible"/>
		</clipPath>
		<g opacity="0.4" clip-path="url(#SVGID_4_)" enable-background="new    ">
			<g>
				<defs>
					<rect id="SVGID_7_" x="4.495" y="2.427" width="545" height="519"/>
				</defs>
				<clipPath id="SVGID_6_">
					<use xlink:href="#SVGID_7_"  overflow="visible"/>
				</clipPath>
				<g clip-path="url(#SVGID_6_)">
					<defs>
						<rect id="SVGID_9_" x="4.762" y="3.172" width="544.229" height="517.684"/>
					</defs>
					<clipPath id="SVGID_8_">
						<use xlink:href="#SVGID_9_"  overflow="visible"/>
					</clipPath>
					<path clip-path="url(#SVGID_8_)" fill="#4700CC" d="M5.539,291.164c3.667,41.646,19.877,78.053,48.623,109.217
						c28.717,31.221,69.652,58.83,122.771,82.877c53.067,24.02,100.822,36.557,143.23,37.537
						c42.39,1.029,80.492-10.785,114.204-35.516c33.713-24.725,62.026-62.408,84.972-113.09
						c22.929-50.661,32.56-96.798,28.892-138.449c-3.679-41.613-19.799-78.36-48.265-110.146
						c-28.477-31.764-69.255-59.703-122.323-83.723C324.52,15.822,276.614,3.623,233.96,3.181
						c-42.665-0.415-80.862,11.747-114.558,36.444c-33.769,24.703-62.084,62.385-85.018,113.041
						C11.445,203.349,1.816,249.497,5.539,291.164"/>
				</g>
			</g>
		</g>
		<path clip-path="url(#SVGID_4_)" fill="#FDFE01" d="M0.776,287.987c3.667,41.646,19.877,78.051,48.623,109.222
			c28.717,31.221,69.651,58.824,122.776,82.871c53.068,24.021,100.817,36.563,143.226,37.543
			c42.391,1.029,80.493-10.789,114.205-35.516c33.712-24.73,62.027-62.412,84.977-113.095
			c22.923-50.655,32.555-96.792,28.887-138.444c-3.674-41.618-19.799-78.359-48.265-110.151
			C466.729,88.66,425.95,60.714,372.881,36.694C319.757,12.646,271.852,0.452,229.197,0.003
			c-42.665-0.409-80.861,11.747-114.559,36.45c-33.768,24.698-62.082,62.38-85.017,113.04
			C6.684,200.177-2.947,246.318,0.776,287.987"/>
		<path clip-path="url(#SVGID_4_)" fill="#231F20" d="M208.244,174.742c-10.576,23.359-38.08,33.718-61.439,23.152
			c-23.354-10.576-33.717-38.079-23.141-61.439c10.571-23.354,38.074-33.717,61.428-23.146
			C208.451,123.88,218.815,151.388,208.244,174.742"/>
		<path clip-path="url(#SVGID_4_)" fill="#FFFFFF" d="M200.709,156.89c-3.711,8.197-13.364,11.831-21.562,8.119
			c-8.192-3.707-11.831-13.36-8.124-21.551c3.712-8.197,13.365-11.842,21.563-8.13S204.416,148.692,200.709,156.89"/>
		<path clip-path="url(#SVGID_4_)" fill="#231F20" d="M377.961,251.571c-10.576,23.354-0.207,50.862,23.147,61.434
			c23.359,10.57,50.861,0.208,61.433-23.146c10.572-23.36,0.213-50.863-23.146-61.439
			C416.041,217.854,388.538,228.212,377.961,251.571"/>
		<path clip-path="url(#SVGID_4_)" fill="#FFFFFF" d="M396.351,245.448c-3.713,8.197-0.078,17.85,8.118,21.562
			c8.197,3.712,17.855,0.067,21.563-8.13c3.712-8.191,0.073-17.844-8.119-21.551C409.715,233.617,400.057,237.251,396.351,245.448"
			/>
		<path clip-path="url(#SVGID_4_)" fill="#FDFE01" d="M198.172,226.441c8.719-18.779,0.561-41.064-18.225-49.782
			c-18.774-8.712-41.064-0.554-49.782,18.22c-8.712,18.785-0.554,41.069,18.226,49.787
			C167.17,253.384,189.454,245.22,198.172,226.441"/>
		<path clip-path="url(#SVGID_4_)" fill="#FDFE01" d="M415.575,327.34c8.718-18.779,0.56-41.069-18.219-49.787
			c-18.78-8.712-41.07-0.554-49.788,18.225c-8.712,18.779-0.555,41.064,18.225,49.781
			C384.573,354.276,406.857,346.119,415.575,327.34"/>
		<path clip-path="url(#SVGID_4_)" fill="#231F20" d="M339.385,340.375c-15.464,28.292-59.893,78.422-125.777,48.6
			c-89.563-40.547-42.129-146.208-37.969-142.015C251.311,323.247,380.97,264.295,339.385,340.375"/>
		<path clip-path="url(#SVGID_4_)" fill="#E802C9" d="M311.828,374.592c-4.457-10.055-12.437-18.594-23.242-23.482
			c-23.354-10.576-50.862-0.212-61.434,23.136c-2.716,6.008-4.031,12.274-4.115,18.459
			C260.809,405.915,290.927,392.864,311.828,374.592"/>
	</g>
</g>
</svg>
