<?xml version="1.0" encoding="utf-8"?>
<!-- Generator: Adobe Illustrator 16.0.0, SVG Export Plug-In . SVG Version: 6.00 Build 0)  -->
<!DOCTYPE svg PUBLIC "-//W3C//DTD SVG 1.1//EN" "http://www.w3.org/Graphics/SVG/1.1/DTD/svg11.dtd">
<svg version="1.1" id="Layer_1" xmlns="http://www.w3.org/2000/svg" xmlns:xlink="http://www.w3.org/1999/xlink" x="0px" y="0px"
	 width="94.17px" height="139.319px" viewBox="0 0 94.17 139.319" enable-background="new 0 0 94.17 139.319" xml:space="preserve">
<g>
	<g>
		<g>
			<path fill="#FFF300" d="M47.09,0C21.12,0,0,21.12,0,47.09c0,12,4.53,23.45,12.76,32.22l1.51,1.62h0.17
				c0.26,0.25,0.56,0.55,0.88,0.89c6.7,6.961,22.72,26.061,26.63,53.131l0.63,4.369h9.01l0.63-4.369
				c3.92-27.141,19.95-46.21,26.66-53.15c0.31-0.33,0.6-0.62,0.86-0.87h0.16l1.52-1.62c8.22-8.77,12.75-20.22,12.75-32.22
				C94.17,21.12,73.05,0,47.09,0z M73.99,72.26c-0.37,0.35-1.24,1.18-2.46,2.44c-5.1,5.27-17.18,19.189-24.44,39.109
				c-6.94-19.08-18.1-32.529-24.41-39.08c-1.22-1.27-2.11-2.109-2.49-2.46L20,72.09c-6.31-6.84-9.78-15.72-9.78-25
				c0-20.33,16.54-36.87,36.87-36.87s36.86,16.54,36.86,36.87c0,9.29-3.47,18.16-9.77,25L73.99,72.26z"/>
		</g>
		<g>
			<path fill="#FFF300" d="M47.09,22.79c-13.4,0-24.29,10.899-24.29,24.3c0,13.39,10.89,24.28,24.29,24.28
				c13.39,0,24.29-10.891,24.29-24.28C71.38,33.689,60.48,22.79,47.09,22.79z M47.09,61.16c-7.76,0-14.08-6.32-14.08-14.07
				c0-7.771,6.32-14.08,14.08-14.08c7.76,0,14.07,6.31,14.07,14.08C61.16,54.84,54.85,61.16,47.09,61.16z"/>
		</g>
	</g>
</g>
</svg>
